<?xml version="1.0" standalone="no"?>
<!DOCTYPE svg PUBLIC "-//W3C//DTD SVG 20010904//EN"
 "http://www.w3.org/TR/2001/REC-SVG-20010904/DTD/svg10.dtd">
<svg version="1.0" xmlns="http://www.w3.org/2000/svg"
 width="64.000000pt" height="64.000000pt" viewBox="0 0 64.000000 64.000000"
 preserveAspectRatio="xMidYMid meet">
<metadata>
Created by potrace 1.11, written by Peter Selinger 2001-2013
</metadata>
<g transform="translate(0.000000,64.000000) scale(0.100000,-0.100000)"
fill="#000000" stroke="none">
<path d="M194 502 c-34 -23 -44 -99 -20 -155 7 -18 37 -63 65 -101 61 -82 65
-101 19 -91 -96 21 -193 112 -148 140 6 4 8 11 4 16 -10 17 -34 -11 -34 -40 0
-37 49 -87 115 -117 66 -28 101 -31 113 -6 12 23 6 39 -35 90 -20 24 -33 45
-30 48 7 7 177 12 194 6 16 -5 27 -63 18 -101 -14 -65 -92 -40 -81 27 3 23 1
32 -7 29 -7 -2 -13 -20 -15 -39 -6 -67 64 -102 108 -55 18 18 21 31 18 79 -4
50 -11 68 -54 128 -91 132 -93 139 -27 121 87 -24 163 -100 134 -134 -14 -18
-2 -30 16 -16 57 48 -61 167 -170 172 -39 2 -42 0 -45 -26 -3 -22 8 -43 40
-85 25 -32 47 -61 50 -67 4 -6 -32 -10 -99 -10 l-106 1 -18 34 c-23 42 -24 88
-3 118 19 27 36 28 59 2 13 -14 16 -28 11 -51 -4 -22 -2 -29 7 -27 6 3 13 21
15 40 5 55 -53 98 -94 70z"/>
</g>
</svg>
