<?xml version="1.0" standalone="no"?>
<!DOCTYPE svg PUBLIC "-//W3C//DTD SVG 20010904//EN"
 "http://www.w3.org/TR/2001/REC-SVG-20010904/DTD/svg10.dtd">
<svg version="1.0" xmlns="http://www.w3.org/2000/svg"
 width="260.000000pt" height="260.000000pt" viewBox="0 0 260.000000 260.000000"
 preserveAspectRatio="xMidYMid meet">
<metadata>
Created by potrace 1.11, written by Peter Selinger 2001-2013
</metadata>
<g transform="translate(0.000000,260.000000) scale(0.100000,-0.100000)"
fill="#000000" stroke="none">
<path d="M220 2485 c-10 -12 -13 -235 -13 -1082 0 -1011 1 -1067 18 -1079 14
-10 156 -13 719 -11 l701 2 171 -107 c94 -60 176 -108 182 -108 9 0 26 30 20
35 -2 2 -79 52 -173 111 l-170 109 -474 2 c-261 1 -476 4 -478 6 -3 4 -5 367
-4 605 l1 72 490 0 c270 0 491 -3 491 -7 1 -5 2 -75 3 -158 1 -143 2 -150 21
-150 19 0 20 8 23 176 l2 177 -22 3 c-13 2 -243 4 -511 3 -268 -1 -490 3 -493
7 -7 12 -7 1350 1 1357 10 10 1606 8 1613 -2 4 -8 6 -589 3 -733 l-1 -23 -521
0 -520 0 3 -22 3 -22 512 -1 c281 0 515 -3 519 -7 7 -7 7 -1269 0 -1276 -3 -2
-58 -4 -123 -5 -111 -2 -118 -3 -118 -22 0 -19 7 -20 129 -20 102 -1 133 2
148 15 18 14 19 43 20 710 1 1309 0 1427 -18 1444 -14 14 -125 16 -1078 16
-942 0 -1065 -2 -1076 -15z m448 -1078 l2 -1047 -22 -1 c-95 -3 -379 0 -386 5
-11 7 -13 2067 -2 2081 5 6 86 10 207 9 l198 0 3 -1047z"/>
<path d="M780 2400 c-15 -9 -16 -100 -1 -110 11 -6 91 -3 99 4 7 7 8 86 2 97
-9 13 -82 20 -100 9z"/>
<path d="M916 2400 c-16 -5 -19 -16 -19 -54 0 -26 3 -50 6 -53 7 -6 97 -6 104
1 7 6 6 97 -1 103 -9 9 -69 11 -90 3z"/>
<path d="M1039 2399 c-13 -8 -18 -93 -6 -106 10 -9 88 -5 101 6 12 10 14 86 3
97 -9 10 -84 12 -98 3z"/>
<path d="M775 2258 c-10 -27 -11 -84 -2 -95 11 -15 56 -17 89 -4 20 8 23 15
21 50 -1 23 -5 46 -8 51 -9 15 -95 12 -100 -2z"/>
</g>
</svg>
