<?xml version="1.0" encoding="utf-8"?>
<!-- Generator: Adobe Illustrator 23.0.3, SVG Export Plug-In . SVG Version: 6.00 Build 0)  -->
<svg version="1.1" id="Layer_1" xmlns="http://www.w3.org/2000/svg" xmlns:xlink="http://www.w3.org/1999/xlink" x="0px" y="0px"
	 viewBox="0 0 28.3 28.3" style="enable-background:new 0 0 28.3 28.3;" xml:space="preserve">
<style type="text/css">
	.st0{fill:#FFFFFF;}
</style>
<path class="st0" d="M12.2,24.1c1.2-0.1,1.8-1.2,1.4-2.3c-0.5-1.4-1.6-2.7-2.5-3.8c-0.6-0.8-1.3-1.6-1.9-2.5c3.9,0,7.7,0,11.6,0
	c0.6,1.2,1,2.5,1,3.9c0,1-0.2,2.1-0.8,3c-0.6,0.9-1.7,1.1-2.6,0.6c-1.8-0.9-2-3.1-1.1-4.7c0.3-0.5-0.5-0.9-0.8-0.4
	c-1.4,2.2-0.7,5.6,2.2,6.2c3.2,0.7,4.2-3.2,3.9-5.7c-0.4-3.2-2.4-5.7-4.3-8.1c-0.5-0.6-1-1.3-1.5-2c-0.4-0.6-1.1-1.4-1.2-2.2
	c-0.3-1.9,3.5-0.4,4.2-0.1c1.6,0.7,3.2,1.5,4.5,2.7c1.1,1,2.9,3.6,0.7,4.5c-0.5,0.2-0.1,1,0.4,0.8c1.1-0.5,1.6-1.8,1.4-2.9
	c-0.3-1.4-1.4-2.6-2.5-3.5c-1.2-1-2.6-1.7-4.1-2.3c-1.2-0.5-2.7-1.2-4.1-1c-1.2,0.1-1.8,1.2-1.4,2.3c0.5,1.4,1.6,2.7,2.5,3.8
	c1,1.3,2.1,2.6,3,4.1c-3.9,0-7.8,0-11.7,0C7.5,12.9,6.6,11,6.6,9c0-1,0.2-2.1,0.8-3C8,5.1,9.1,4.9,10,5.4c1.8,0.9,2,3.1,1.1,4.7
	c-0.3,0.5,0.5,0.9,0.8,0.4c1.4-2.2,0.7-5.6-2.2-6.2C6.5,3.6,5.5,7.6,5.8,10c0.4,3.2,2.4,5.7,4.3,8.1c0.5,0.6,1,1.3,1.5,2
	c0.4,0.6,1.1,1.4,1.2,2.2c0.3,1.9-3.5,0.4-4.2,0.1c-1.6-0.7-3.2-1.5-4.5-2.7c-1.1-1-2.9-3.6-0.7-4.5c0.5-0.2,0.1-1-0.4-0.8
	c-1.1,0.5-1.6,1.8-1.4,2.9c0.3,1.4,1.4,2.6,2.5,3.5c1.2,1,2.6,1.7,4.1,2.3C9.3,23.6,10.8,24.2,12.2,24.1z"/>
</svg>
